Coordinates
version=1
nRows=30
nColumns=30
inDegrees=yes

Units are S.I. units (second, meters, Newtons, ...)
Angles are in degrees.

endheader
time	floatyaw	floatroll	floatpitch	floatx	floaty	floatz	pro_sup_l	deviation_l	flexion_l	cmc_flexion_l	cmc_abduction_l	mp_flexion_l	ip_flexion_l	2mcp_flexion_l	2mcp_abduction_l	2pm_flexion_l	2md_flexion_l	3mcp_flexion_l	3mcp_abduction_l	3pm_flexion_l	3md_flexion_l	4mcp_flexion_l	4mcp_abduction_l	4pm_flexion_l	4md_flexion_l	5mcp_flexion_l	5mcp_abduction_l	5pm_flexion_l	5md_flexion_l
-0.495000	-3.046650	-4.537392	92.867313	0.000639	-0.250693	0.009337	90.535682	1.119686	-0.329975	22.158163	4.498132	-17.029883	-27.348568	21.327902	7.163852	31.242830	19.433869	10.373075	5.141316	34.700405	21.395198	-1.427511	-3.852565	52.218473	30.735950	-16.484729	-10.171543	59.389628	42.190915
-0.485000	-3.046650	-4.537392	92.867313	0.002865	-0.249018	0.012030	90.111010	1.640474	0.208391	20.933114	5.286528	-16.823890	-26.275966	22.172614	7.265397	30.596937	19.035543	11.216257	5.255367	34.051178	21.202557	-0.725127	-3.870601	51.499370	30.599013	-14.740106	-10.276662	57.691313	41.068381
-0.475000	-3.046650	-4.537392	92.867313	0.005455	-0.247127	0.015047	89.647162	2.302820	0.788258	19.572254	6.165313	-16.638624	-25.116902	23.146514	7.338098	29.815733	18.584771	12.128762	5.364737	33.298339	21.023286	0.071342	-3.865179	50.674529	30.449399	-12.727881	-10.377659	55.750112	39.769706
-0.465000	-3.046650	-4.537392	92.867313	0.008429	-0.245087	0.018379	89.165787	3.107856	1.381602	18.123279	7.113879	-16.475832	-23.909982	24.232156	7.369508	28.925960	18.103170	13.102898	5.449855	32.466545	20.871825	0.971863	-3.824795	49.773373	30.293631	-10.525372	-10.443838	53.642138	38.358335
-0.455000	-3.046650	-4.537392	92.867313	0.011800	-0.242969	0.022009	88.699657	4.048435	1.963212	16.645666	8.095433	-16.331573	-22.713187	25.396641	7.362143	27.981777	17.617903	14.138198	5.497711	31.592745	20.744130	1.979117	-3.744629	48.836752	30.150386	-8.262379	-10.455083	51.499487	36.939878
-0.445000	-3.046650	-4.537392	92.867313	0.015574	-0.240831	0.025921	88.296185	5.110937	2.516390	15.199939	9.061076	-16.194778	-21.585878	26.597660	7.333134	27.054757	17.155776	15.239012	5.506303	30.719662	20.621937	3.075932	-3.629232	47.911053	30.047729	-6.093423	-10.407388	49.484553	35.632916
-0.435000	-3.046650	-4.537392	92.867313	0.019748	-0.238708	0.030100	88.011909	6.276248	3.034800	13.836536	9.960958	-16.049992	-20.569197	27.798420	7.308647	26.212359	16.735069	16.413048	5.484690	29.885044	20.483696	4.222654	-3.491246	47.039695	30.015246	-4.158397	-10.312709	47.745131	34.534486
-0.425000	-3.046650	-4.537392	92.867313	0.024304	-0.236615	0.034546	87.898257	7.519530	3.520795	12.589766	10.759488	-15.884669	-19.678413	28.979360	7.314856	25.499006	16.361611	17.666311	5.449209	29.115212	20.317671	5.366134	-3.347390	46.256856	30.073303	-2.550379	-10.193777	46.375758	33.698566
-0.415000	-3.046650	-4.537392	92.867313	0.029220	-0.234567	0.039265	87.985576	8.809544	3.982010	11.477959	11.447374	-15.696989	-18.910233	30.136747	7.368618	24.930428	16.032107	18.993836	5.417814	28.425911	20.130298	6.455767	-3.213624	45.583649	30.223725	-1.304490	-10.076635	45.403111	33.134554
-0.405000	-3.046650	-4.537392	92.867313	0.034457	-0.232602	0.044267	88.273997	10.108922	4.428374	10.506123	12.044415	-15.498527	-18.256112	31.270161	7.471844	24.500385	15.741429	20.372459	5.404791	27.825830	19.944525	7.459836	-3.101115	45.024312	30.447369	-0.407211	-9.984756	44.794809	32.820052
-0.395000	-3.046650	-4.537392	92.867313	0.039968	-0.230773	0.049551	88.735899	11.376824	4.870798	9.667527	12.592752	-15.309168	-17.710144	32.369496	7.612538	24.191768	15.488369	21.762379	5.417626	27.317848	19.789185	8.375421	-3.014403	44.563821	30.711566	0.185287	-9.936810	44.480496	32.717698
-0.385000	-3.046650	-4.537392	92.867313	0.045694	-0.229146	0.055095	89.328917	12.574464	5.321107	8.944597	13.145553	-15.147034	-17.267565	33.410447	7.772135	23.985826	15.277443	23.117858	5.456833	26.898511	19.686546	9.226854	-2.952548	44.172605	30.984058	0.530406	-9.946813	44.375858	32.788931
-0.375000	-3.046650	-4.537392	92.867313	0.051578	-0.227776	0.060858	90.013613	13.672322	5.791862	8.312019	13.757231	-15.019536	-16.918855	34.359864	7.934891	23.868202	15.117931	24.400609	5.518263	26.559448	19.645805	10.052417	-2.912459	43.820754	31.245130	0.687544	-10.023690	44.405147	33.002018
-0.365000	-3.046650	-4.537392	92.867313	0.057580	-0.226695	0.066789	90.768047	14.656299	6.295429	7.743129	14.477869	-14.920752	-16.647106	35.185999	8.093674	23.832471	15.022200	25.587782	5.596232	26.292235	19.665554	10.885627	-2.892142	43.495432	31.491039	0.711262	-10.168643	44.518324	33.333776
-0.355000	-3.046650	-4.537392	92.867313	0.063682	-0.225915	0.072845	91.592817	15.529787	6.843078	7.216651	15.349822	-14.836032	-16.431666	35.867212	8.249119	23.880777	15.003788	26.670062	5.685535	26.094304	19.742338	11.740945	-2.891715	43.210252	31.728422	0.649212	-10.371856	44.696797	33.765350
-0.345000	-3.046650	-4.537392	92.867313	0.069883	-0.225427	0.078990	92.504472	16.310007	7.445271	6.718976	16.402976	-14.749959	-16.254342	36.395369	8.403625	24.020375	15.074432	27.641951	5.781466	25.971675	19.878954	12.611089	-2.911815	42.999182	31.965212	0.545240	-10.611901	44.943236	34.274061
-0.335000	-3.046650	-4.537392	92.867313	0.076181	-0.225218	0.085186	93.520882	17.019695	8.113005	6.240023	17.648308	-14.652015	-16.101994	36.774186	8.555007	24.256552	15.239686	28.492136	5.878691	25.935542	20.086474	13.476068	-2.951064	42.897280	32.204308	0.445724	-10.860135	45.259173	34.825721
-0.325000	-3.046650	-4.537392	92.867313	0.082552	-0.225269	0.091388	94.646553	17.677868	8.858315	5.766530	19.073379	-14.536891	-15.963567	37.015084	8.694359	24.585272	15.494651	29.202028	5.970710	25.993884	20.378346	14.317404	-3.004798	42.919112	32.442644	0.403863	-11.089025	45.623934	35.373107
-0.315000	-3.046650	-4.537392	92.867313	0.088947	-0.225569	0.097539	95.866235	18.294102	9.692089	5.279807	20.643552	-14.401022	-15.825591	37.132836	8.809401	24.990154	15.822852	29.753869	6.050985	26.143721	20.760742	15.129047	-3.066078	43.047534	32.674046	0.476553	-11.280452	45.990084	35.864112
-0.305000	-3.046650	-4.537392	92.867313	0.095291	-0.226112	0.103580	97.150408	18.868803	10.619453	4.761693	22.309116	-14.239370	-15.671425	37.142057	8.890729	25.446327	16.200536	30.142064	6.115163	26.369922	21.226278	15.920015	-3.128145	43.239533	32.892822	0.713073	-11.429807	46.299959	36.257427
-0.295000	-3.046650	-4.537392	92.867313	0.101508	-0.226899	0.109459	98.468946	19.398522	11.635316	4.205353	24.015208	-14.045069	-15.485330	37.054926	8.936630	25.929536	16.605637	30.379478	6.162811	26.651379	21.755762	16.709290	-3.186702	43.446165	33.096315	1.141223	-11.544218	46.512490	36.537967
-0.285000	-3.046650	-4.537392	92.867313	0.107529	-0.227929	0.115141	99.804220	19.882496	12.723378	3.623100	25.711112	-13.811718	-15.257957	36.880126	8.953564	26.425383	17.027235	30.494804	6.197443	26.969738	22.327008	17.516799	-3.240910	43.635674	33.286368	1.759514	-11.636553	46.621959	36.722999
-0.275000	-3.046650	-4.537392	92.867313	0.113311	-0.229201	0.120607	101.155633	20.326235	13.859977	3.045305	27.356995	-13.536508	-14.989396	36.622413	8.952438	26.933478	17.470280	30.522800	6.224858	27.314837	22.925347	18.354711	-3.292973	43.806893	33.469763	2.540984	-11.718865	46.656771	36.854771
-0.265000	-3.046650	-4.537392	92.867313	0.118828	-0.230706	0.125851	102.533553	20.740275	15.020874	2.510538	28.927374	-13.222483	-14.688669	36.282392	8.943282	27.464836	17.952641	30.492688	6.250771	27.684769	23.549680	19.222610	-3.346723	43.985858	33.657002	3.446926	-11.798622	46.660993	36.983390
-0.255000	-3.046650	-4.537392	92.867313	0.124065	-0.232431	0.130869	103.947498	21.135718	16.186814	2.052491	30.411036	-12.878751	-14.370893	35.857149	8.931249	28.035061	18.495632	30.420354	6.278851	28.082772	24.210575	20.108861	-3.405861	44.208906	33.859002	4.442425	-11.878639	46.672300	37.148994
-0.245000	-3.046650	-4.537392	92.867313	0.129003	-0.234362	0.135649	105.396515	21.520277	17.344649	1.690371	31.807837	-12.518151	-14.053609	35.343111	8.915537	28.657566	19.112586	30.308028	6.309714	28.514288	24.921251	20.997742	-3.472525	44.503503	34.083011	5.505333	-11.958731	46.709261	37.371238
-0.235000	-3.046650	-4.537392	92.867313	0.133620	-0.236481	0.140172	106.867241	21.897548	18.484377	1.426374	33.123743	-12.152968	-13.752817	34.741438	8.891205	29.339818	19.801134	30.151301	6.341018	28.985828	25.686337	21.878472	-3.546695	44.877946	34.330436	6.626104	-12.036521	46.771960	37.648750
-0.225000	-3.046650	-4.537392	92.867313	0.137889	-0.238767	0.144414	108.339142	22.269220	19.595304	1.249530	34.365727	-11.790763	-13.479262	34.064356	8.852741	30.082875	20.543002	29.949628	6.368493	29.505133	26.494936	22.750986	-3.626563	45.323883	34.598282	7.802174	-12.106940	46.851542	37.966251
-0.215000	-3.046650	-4.537392	92.867313	0.141794	-0.241199	0.148354	109.791381	22.637369	20.664348	1.142355	35.537400	-11.432955	-13.236294	33.340001	8.797788	30.882436	21.310951	29.715074	6.387538	30.081142	27.322192	23.625855	-3.709528	45.827120	34.883068	9.031682	-12.162145	46.941903	38.305123
-0.205000	-3.046650	-4.537392	92.867313	0.145332	-0.243746	0.151983	111.205397	23.004129	21.676926	1.086462	36.635567	-11.077580	-13.020810	32.613907	8.729543	31.729560	22.078767	29.475842	6.394795	30.722618	28.138537	24.520124	-3.793255	46.377998	35.184037	10.308616	-12.193336	47.048508	38.653397
